<?xml version="1.0" standalone="no"?>
<!DOCTYPE svg PUBLIC "-//W3C//DTD SVG 20010904//EN"
 "http://www.w3.org/TR/2001/REC-SVG-20010904/DTD/svg10.dtd">
<svg version="1.0" xmlns="http://www.w3.org/2000/svg"
 width="32.000000pt" height="32.000000pt" viewBox="0 0 32.000000 32.000000"
 preserveAspectRatio="xMidYMid meet">

<g transform="translate(0.000000,32.000000) scale(0.100000,-0.100000)"
fill="#000000" stroke="none">
<path d="M112 247 c-52 -53 -43 -72 10 -20 l38 37 38 -37 c21 -21 41 -34 45
-30 7 6 -70 93 -83 93 -3 0 -25 -19 -48 -43z"/>
<path d="M77 93 c-4 -6 14 -29 38 -53 l45 -44 45 44 c24 24 42 47 38 53 -3 5
-23 -8 -44 -29 l-39 -38 -39 38 c-21 21 -41 34 -44 29z"/>
</g>
</svg>
